{
	"asset":{
		"generator":"Khronos glTF Blender I/O v3.6.27",
		"version":"2.0"
	},
	"scene":0,
	"scenes":[
		{
			"name":"Scene",
			"nodes":[
				1
			]
		}
	],
	"nodes":[
		{
			"mesh":0,
			"name":"Top Leaf",
			"rotation":[
				0,
				6.872676021885127e-05,
				0,
				1
			],
			"translation":[
				-0.012426909990608692,
				0.3322787582874298,
				-0.005113109480589628
			]
		},
		{
			"children":[
				0
			],
			"mesh":1,
			"name":"Top",
			"translation":[
				-9.000000318337698e-06,
				0.38040468096733093,
				0
			]
		}
	],
	"materials":[
		{
			"doubleSided":true,
			"name":"Green top",
			"pbrMetallicRoughness":{
				"baseColorFactor":[
					0.011635355651378632,
					0.49545159935951233,
					0.018045365810394287,
					1
				],
				"metallicFactor":0,
				"roughnessFactor":0.30000001192092896
			}
		},
		{
			"doubleSided":true,
			"name":"Final pomodoro top",
			"pbrMetallicRoughness":{
				"baseColorTexture":{
					"index":0
				},
				"metallicFactor":0,
				"roughnessFactor":0.30000001192092896
			}
		}
	],
	"meshes":[
		{
			"name":"Plane",
			"primitives":[
				{
					"attributes":{
						"POSITION":0,
						"NORMAL":1,
						"TEXCOORD_0":2
					},
					"indices":3,
					"material":0
				}
			]
		},
		{
			"name":"Icosphere.008",
			"primitives":[
				{
					"attributes":{
						"POSITION":4,
						"NORMAL":5,
						"TEXCOORD_0":6
					},
					"indices":7,
					"material":1
				}
			]
		}
	],
	"textures":[
		{
			"sampler":0,
			"source":0
		}
	],
	"images":[
		{
			"bufferView":8,
			"mimeType":"image/png",
			"name":"numbers2"
		}
	],
	"accessors":[
		{
			"bufferView":0,
			"componentType":5126,
			"count":1395,
			"max":[
				0.5224126577377319,
				0.0813136100769043,
				0.46332430839538574
			],
			"min":[
				-0.4720672070980072,
				-0.07412737607955933,
				-0.5039811730384827
			],
			"type":"VEC3"
		},
		{
			"bufferView":1,
			"componentType":5126,
			"count":1395,
			"type":"VEC3"
		},
		{
			"bufferView":2,
			"componentType":5126,
			"count":1395,
			"type":"VEC2"
		},
		{
			"bufferView":3,
			"componentType":5123,
			"count":6372,
			"type":"SCALAR"
		},
		{
			"bufferView":4,
			"componentType":5126,
			"count":4767,
			"max":[
				0.9782516360282898,
				0.36056968569755554,
				0.9727497100830078
			],
			"min":[
				-0.9761034846305847,
				-0.3608938753604889,
				-0.9727498888969421
			],
			"type":"VEC3"
		},
		{
			"bufferView":5,
			"componentType":5126,
			"count":4767,
			"type":"VEC3"
		},
		{
			"bufferView":6,
			"componentType":5126,
			"count":4767,
			"type":"VEC2"
		},
		{
			"bufferView":7,
			"componentType":5123,
			"count":23562,
			"type":"SCALAR"
		}
	],
	"bufferViews":[
		{
			"buffer":0,
			"byteLength":16740,
			"byteOffset":0,
			"target":34962
		},
		{
			"buffer":0,
			"byteLength":16740,
			"byteOffset":16740,
			"target":34962
		},
		{
			"buffer":0,
			"byteLength":11160,
			"byteOffset":33480,
			"target":34962
		},
		{
			"buffer":0,
			"byteLength":12744,
			"byteOffset":44640,
			"target":34963
		},
		{
			"buffer":0,
			"byteLength":57204,
			"byteOffset":57384,
			"target":34962
		},
		{
			"buffer":0,
			"byteLength":57204,
			"byteOffset":114588,
			"target":34962
		},
		{
			"buffer":0,
			"byteLength":38136,
			"byteOffset":171792,
			"target":34962
		},
		{
			"buffer":0,
			"byteLength":47124,
			"byteOffset":209928,
			"target":34963
		},
		{
			"buffer":0,
			"byteLength":1049519,
			"byteOffset":257052
		}
	],
	"samplers":[
		{
			"magFilter":9729,
			"minFilter":9987
		}
	],
	"buffers":[
		{
			"byteLength":1306572,
			"uri":"data:application/octet-stream;base64,"
		}
	]
}
