{
	"asset":{
		"generator":"Khronos glTF Blender I/O v3.6.27",
		"version":"2.0"
	},
	"scene":0,
	"scenes":[
		{
			"name":"Scene",
			"nodes":[
				0
			]
		}
	],
	"nodes":[
		{
			"mesh":0,
			"name":"Bottom"
		}
	],
	"materials":[
		{
			"doubleSided":true,
			"name":"Final pomodoro top",
			"pbrMetallicRoughness":{
				"baseColorTexture":{
					"index":0
				},
				"metallicFactor":0,
				"roughnessFactor":0.30000001192092896
			}
		}
	],
	"meshes":[
		{
			"name":"Icosphere.001",
			"primitives":[
				{
					"attributes":{
						"POSITION":0,
						"NORMAL":1,
						"TEXCOORD_0":2
					},
					"indices":3,
					"material":0
				}
			]
		}
	],
	"textures":[
		{
			"sampler":0,
			"source":0
		}
	],
	"images":[
		{
			"bufferView":4,
			"mimeType":"image/png",
			"name":"numbers2"
		}
	],
	"accessors":[
		{
			"bufferView":0,
			"componentType":5126,
			"count":16863,
			"max":[
				0.976112961769104,
				0.05775974690914154,
				0.9813364744186401
			],
			"min":[
				-0.9800052642822266,
				-0.8973854780197144,
				-0.9727497696876526
			],
			"type":"VEC3"
		},
		{
			"bufferView":1,
			"componentType":5126,
			"count":16863,
			"type":"VEC3"
		},
		{
			"bufferView":2,
			"componentType":5126,
			"count":16863,
			"type":"VEC2"
		},
		{
			"bufferView":3,
			"componentType":5123,
			"count":39552,
			"type":"SCALAR"
		}
	],
	"bufferViews":[
		{
			"buffer":0,
			"byteLength":202356,
			"byteOffset":0,
			"target":34962
		},
		{
			"buffer":0,
			"byteLength":202356,
			"byteOffset":202356,
			"target":34962
		},
		{
			"buffer":0,
			"byteLength":134904,
			"byteOffset":404712,
			"target":34962
		},
		{
			"buffer":0,
			"byteLength":79104,
			"byteOffset":539616,
			"target":34963
		},
		{
			"buffer":0,
			"byteLength":1049519,
			"byteOffset":618720
		}
	],
	"samplers":[
		{
			"magFilter":9729,
			"minFilter":9987
		}
	],
	"buffers":[
		{
			"byteLength":1668240,
			"uri":"data:application/octet-stream;base64,"
		}
	]
}
