{
  "asset": {
    "version": "2.0",
    "generator": "THREE.GLTFExporter"
  },
  "scenes": [
    {
      "name": "Scene",
      "nodes": [
        2,
        4
      ]
    }
  ],
  "scene": 0,
  "nodes": [
    {
      "matrix": [
        0.9999999905532648,
        0,
        -0.00013745352043770254,
        0,
        0,
        1,
        0,
        0,
        0.00013745352043770254,
        0,
        0.9999999905532648,
        0,
        -0.012426909990608692,
        0.3322787582874298,
        -0.005113109480589628,
        1
      ],
      "name": "Top_Leaf",
      "extras": {
        "name": "Top Leaf"
      },
      "mesh": 1
    },
    {
      "matrix": [
        1,
        0,
        0,
        0,
        0,
        1,
        0,
        0,
        0,
        0,
        1,
        0,
        -0.000009000000318337698,
        0.76,
        0,
        1
      ],
      "name": "Top",
      "extras": {
        "name": "Top"
      },
      "mesh": 0,
      "children": [
        0
      ]
    },
    {
      "name": "pomodaro_top.gltf",
      "children": [
        1
      ]
    },
    {
      "matrix": [
        1,
        0,
        0,
        0,
        0,
        1,
        0,
        0,
        0,
        0,
        1,
        0,
        0,
        0.38,
        0,
        1
      ],
      "name": "Bottom",
      "extras": {
        "name": "Bottom"
      },
      "mesh": 2
    },
    {
      "name": "pomodaro_bottom.gltf",
      "children": [
        3
      ]
    }
  ],
  "bufferViews": [
    {
      "buffer": 0,
      "byteOffset": 0,
      "byteLength": 57204,
      "target": 34962,
      "byteStride": 12
    },
    {
      "buffer": 0,
      "byteOffset": 57204,
      "byteLength": 57204,
      "target": 34962,
      "byteStride": 12
    },
    {
      "buffer": 0,
      "byteOffset": 114408,
      "byteLength": 38136,
      "target": 34962,
      "byteStride": 8
    },
    {
      "buffer": 0,
      "byteOffset": 152544,
      "byteLength": 47124,
      "target": 34963
    },
    {
      "buffer": 0,
      "byteOffset": 199668,
      "byteLength": 16740,
      "target": 34962,
      "byteStride": 12
    },
    {
      "buffer": 0,
      "byteOffset": 216408,
      "byteLength": 16740,
      "target": 34962,
      "byteStride": 12
    },
    {
      "buffer": 0,
      "byteOffset": 233148,
      "byteLength": 11160,
      "target": 34962,
      "byteStride": 8
    },
    {
      "buffer": 0,
      "byteOffset": 244308,
      "byteLength": 12744,
      "target": 34963
    },
    {
      "buffer": 0,
      "byteOffset": 257052,
      "byteLength": 202356,
      "target": 34962,
      "byteStride": 12
    },
    {
      "buffer": 0,
      "byteOffset": 459408,
      "byteLength": 202356,
      "target": 34962,
      "byteStride": 12
    },
    {
      "buffer": 0,
      "byteOffset": 661764,
      "byteLength": 134904,
      "target": 34962,
      "byteStride": 8
    },
    {
      "buffer": 0,
      "byteOffset": 796668,
      "byteLength": 79104,
      "target": 34963
    }
  ],
  "buffers": [
    {
      "byteLength": 875772,
      "uri": "data:application/octet-stream;base64,"
    }
  ],
  "accessors": [
    {
      "bufferView": 0,
      "componentType": 5126,
      "count": 4767,
      "max": [
        0.9782516360282898,
        0.36056968569755554,
        0.9727497100830078
      ],
      "min": [
        -0.9761034846305847,
        -0.3608938753604889,
        -0.9727498888969421
      ],
      "type": "VEC3"
    },
    {
      "bufferView": 1,
      "componentType": 5126,
      "count": 4767,
      "max": [
        0.9964492917060852,
        1,
        0.9995993971824646
      ],
      "min": [
        -0.9938874244689941,
        -1,
        -0.9995993971824646
      ],
      "type": "VEC3"
    },
    {
      "bufferView": 2,
      "componentType": 5126,
      "count": 4767,
      "max": [
        1.2281272411346436,
        0.7308454513549805
      ],
      "min": [
        -0.04083963856101036,
        0.12109375
      ],
      "type": "VEC2"
    },
    {
      "bufferView": 3,
      "componentType": 5123,
      "count": 23562,
      "max": [
        4766
      ],
      "min": [
        0
      ],
      "type": "SCALAR"
    },
    {
      "bufferView": 4,
      "componentType": 5126,
      "count": 1395,
      "max": [
        0.5224126577377319,
        0.0813136100769043,
        0.46332430839538574
      ],
      "min": [
        -0.4720672070980072,
        -0.07412737607955933,
        -0.5039811730384827
      ],
      "type": "VEC3"
    },
    {
      "bufferView": 5,
      "componentType": 5126,
      "count": 1395,
      "max": [
        0.9985353946685791,
        0.9998824596405029,
        1
      ],
      "min": [
        -0.9985353946685791,
        -1,
        -1
      ],
      "type": "VEC3"
    },
    {
      "bufferView": 6,
      "componentType": 5126,
      "count": 1395,
      "max": [
        1.0000001192092896,
        1
      ],
      "min": [
        -2.0116567611694336e-7,
        -1.1920928955078125e-7
      ],
      "type": "VEC2"
    },
    {
      "bufferView": 7,
      "componentType": 5123,
      "count": 6372,
      "max": [
        1394
      ],
      "min": [
        0
      ],
      "type": "SCALAR"
    },
    {
      "bufferView": 8,
      "componentType": 5126,
      "count": 16863,
      "max": [
        0.976112961769104,
        0.05775974690914154,
        0.9813364744186401
      ],
      "min": [
        -0.9800052642822266,
        -0.8973854780197144,
        -0.9727497696876526
      ],
      "type": "VEC3"
    },
    {
      "bufferView": 9,
      "componentType": 5126,
      "count": 16863,
      "max": [
        0.9999808073043823,
        1,
        1
      ],
      "min": [
        -0.999366283416748,
        -1,
        -1
      ],
      "type": "VEC3"
    },
    {
      "bufferView": 10,
      "componentType": 5126,
      "count": 16863,
      "max": [
        1,
        1
      ],
      "min": [
        0,
        0
      ],
      "type": "VEC2"
    },
    {
      "bufferView": 11,
      "componentType": 5123,
      "count": 39552,
      "max": [
        16862
      ],
      "min": [
        0
      ],
      "type": "SCALAR"
    }
  ],
  "materials": [
    {
      "pbrMetallicRoughness": {
        "metallicFactor": 0,
        "roughnessFactor": 0.30000001192092896,
        "baseColorTexture": {
          "index": 0,
          "texCoord": 0
        }
      },
      "doubleSided": true,
      "name": "Final pomodoro top"
    },
    {
      "pbrMetallicRoughness": {
        "baseColorFactor": [
          0.011635355651378632,
          0.49545159935951233,
          0.018045365810394287,
          1
        ],
        "metallicFactor": 0,
        "roughnessFactor": 0.30000001192092896
      },
      "doubleSided": true,
      "name": "Green top"
    },
    {
      "pbrMetallicRoughness": {
        "metallicFactor": 0,
        "roughnessFactor": 0.30000001192092896,
        "baseColorTexture": {
          "index": 1,
          "texCoord": 0
        }
      },
      "doubleSided": true,
      "name": "Final pomodoro top"
    }
  ],
  "textures": [
    {
      "sampler": 0,
      "source": 0,
      "name": "numbers2"
    },
    {
      "sampler": 1,
      "source": 1,
      "name": "numbers2"
    }
  ],
  "samplers": [
    {
      "magFilter": 9729,
      "minFilter": 9987,
      "wrapS": 10497,
      "wrapT": 10497
    },
    {
      "magFilter": 9729,
      "minFilter": 9987,
      "wrapS": 10497,
      "wrapT": 10497
    }
  ],
  "images": [
    {
      "mimeType": "image/png",
      "uri": "data:image/png;base64,"
    },
    {
      "mimeType": "image/png",
      "uri": "data:image/png;base64,"
    }
  ],
  "meshes": [
    {
      "primitives": [
        {
          "mode": 4,
          "attributes": {
            "POSITION": 0,
            "NORMAL": 1,
            "TEXCOORD_0": 2
          },
          "indices": 3,
          "material": 0
        }
      ]
    },
    {
      "primitives": [
        {
          "mode": 4,
          "attributes": {
            "POSITION": 4,
            "NORMAL": 5,
            "TEXCOORD_0": 6
          },
          "indices": 7,
          "material": 1
        }
      ]
    },
    {
      "primitives": [
        {
          "mode": 4,
          "attributes": {
            "POSITION": 8,
            "NORMAL": 9,
            "TEXCOORD_0": 10
          },
          "indices": 11,
          "material": 2
        }
      ]
    }
  ]
}